<?xml version="1.0"?>
<svg xmlns="http://www.w3.org/2000/svg" xmlns:xlink="http://www.w3.org/1999/xlink" xmlns:svgjs="http://svgjs.com/svgjs" version="1.1" width="512" height="512" x="0" y="0" viewBox="0 0 512 512" style="enable-background:new 0 0 512 512" xml:space="preserve" class=""><g>
<g xmlns="http://www.w3.org/2000/svg">
	<g>
		<g>
			<path d="M330.667,224h-0.107c-21.397-51.371-71.787-85.333-127.893-85.333c-73.109,0-133.205,56.875-138.304,128.704     C28.032,272.427,0,303.659,0,341.333C0,382.507,33.493,416,74.667,416h256c52.928,0,96-43.072,96-96S383.595,224,330.667,224z" fill="#f9f9f9" data-original="#000000" style=""/>
			<path d="M416,181.333h-0.107C394.496,129.963,344.107,96,288,96c-14.507,0-28.928,2.283-42.859,6.827l-33.557,10.923     l33.984,9.493c40.64,11.371,75.776,38.933,96.448,75.648l2.517,4.48l5.056,0.832C406.613,213.483,448,262.187,448,320     c0,9.963-1.408,20.224-4.181,30.528l-6.187,23.019l21.291-10.709C491.669,346.347,512,313.579,512,277.333     C512,224.405,468.928,181.333,416,181.333z" fill="#f9f9f9" data-original="#000000" style=""/>
		</g>
	</g>
</g>
<g xmlns="http://www.w3.org/2000/svg">
</g>
<g xmlns="http://www.w3.org/2000/svg">
</g>
<g xmlns="http://www.w3.org/2000/svg">
</g>
<g xmlns="http://www.w3.org/2000/svg">
</g>
<g xmlns="http://www.w3.org/2000/svg">
</g>
<g xmlns="http://www.w3.org/2000/svg">
</g>
<g xmlns="http://www.w3.org/2000/svg">
</g>
<g xmlns="http://www.w3.org/2000/svg">
</g>
<g xmlns="http://www.w3.org/2000/svg">
</g>
<g xmlns="http://www.w3.org/2000/svg">
</g>
<g xmlns="http://www.w3.org/2000/svg">
</g>
<g xmlns="http://www.w3.org/2000/svg">
</g>
<g xmlns="http://www.w3.org/2000/svg">
</g>
<g xmlns="http://www.w3.org/2000/svg">
</g>
<g xmlns="http://www.w3.org/2000/svg">
</g>
</g></svg>
