<?xml version="1.0"?>
<svg xmlns="http://www.w3.org/2000/svg" xmlns:xlink="http://www.w3.org/1999/xlink" xmlns:svgjs="http://svgjs.com/svgjs" version="1.1" width="512" height="512" x="0" y="0" viewBox="0 0 512 512" style="enable-background:new 0 0 512 512" xml:space="preserve" class=""><g><path xmlns="http://www.w3.org/2000/svg" d="m244 120.503-42-8.4v227.794l42-8.4z" fill="#f9f9f9" data-original="#000000" style="" class=""/><path xmlns="http://www.w3.org/2000/svg" d="m388 149.303-42-8.4v170.194l42-8.4z" fill="#f9f9f9" data-original="#000000" style="" class=""/><path xmlns="http://www.w3.org/2000/svg" d="m316 134.903-42-8.4v198.994l42-8.4z" fill="#f9f9f9" data-original="#000000" style="" class=""/><path xmlns="http://www.w3.org/2000/svg" d="m447.942 161.292-29.942-5.989v141.394l29.942-5.988c7.011-1.402 12.058-7.559 12.058-14.709v-100c0-7.15-5.047-13.307-12.058-14.708z" fill="#f9f9f9" data-original="#000000" style="" class=""/><path xmlns="http://www.w3.org/2000/svg" d="m497 342h-134c-8.284 0-15 6.716-15 15s6.716 15 15 15h134c8.284 0 15-6.716 15-15s-6.716-15-15-15z" fill="#f9f9f9" data-original="#000000" style="" class=""/><path xmlns="http://www.w3.org/2000/svg" d="m136 402h-30c-8.284 0-15 6.716-15 15s6.716 15 15 15h30c8.284 0 15-6.716 15-15s-6.716-15-15-15z" fill="#f9f9f9" data-original="#000000" style="" class=""/><path xmlns="http://www.w3.org/2000/svg" d="m430 402h-234c-8.284 0-15 6.716-15 15s6.716 15 15 15h234c13.785 0 25 11.215 25 25s-11.215 25-25 25c-8.899 0-17.2-4.793-21.664-12.509-4.148-7.17-13.323-9.622-20.495-5.473-7.171 4.148-9.621 13.324-5.473 20.495 9.809 16.955 28.06 27.487 47.632 27.487 30.327 0 55-24.673 55-55s-24.673-55-55-55z" fill="#f9f9f9" data-original="#000000" style="" class=""/><path xmlns="http://www.w3.org/2000/svg" d="m363 110h94c30.327 0 55-24.673 55-55s-24.673-55-55-55c-19.572 0-37.823 10.532-47.631 27.487-4.148 7.171-1.698 16.347 5.473 20.495s16.347 1.698 20.495-5.473c4.463-7.716 12.764-12.509 21.663-12.509 13.785 0 25 11.215 25 25s-11.215 25-25 25h-94c-8.284 0-15 6.716-15 15s6.716 15 15 15z" fill="#f9f9f9" data-original="#000000" style="" class=""/><path xmlns="http://www.w3.org/2000/svg" d="m147.942 101.292c-3.33-.667-6.752-.175-9.725 1.334v-.001c-.316.16-.628.33-.934.514l-77.283 46.368v-62.087c17.459-6.192 30-22.865 30-42.42 0-24.813-20.187-45-45-45s-45 20.187-45 45c0 19.555 12.541 36.228 30 42.42v409.58c0 8.284 6.716 15 15 15s15-6.716 15-15v-194.507l77.283 46.37c.059.035.121.064.18.099.169.098.342.189.514.281.071.037.14.079.211.115.002-.002.004-.003.006-.005 2.108 1.074 4.437 1.647 6.805 1.647.979 0 1.965-.096 2.942-.292l24.059-4.811v-239.794zm-17.942 208.215-70-42v-83.015l70-42z" fill="#f9f9f9" data-original="#000000" style="" class=""/></g></svg>
